# xmcd
#
# Track frame offsets: 
#        150
#        16628
#        32603
#        55976
#        79997
#        104210
#        129136
#        152997
#        174632
#        200240
#
# Disc length: 3156 seconds
#
# Revision: 0
# Processed by: cddbd v1.5.2PL0 Copyright (c) Steve Scherf et al.
# Submitted via: ExactAudioCopy v1.3
#
DISCID=840c520a
DTITLE=Angel And The Bad Boys - Secondhand Blues
DYEAR=1996
DGENRE=Electric Blues, Blues Rock
TTITLE0=Crossroads
TTITLE1=Dobro intro
TTITLE2=Sweet Black Angel
TTITLE3=Evil
TTITLE4=Rock me baby
TTITLE5=Shadow of doubt
TTITLE6=Tell mama
TTITLE7=Turtle blues
TTITLE8=Rather go blind
TTITLE9=Wang dang doudle
EXTD=
EXTT0=
EXTT1=
EXTT2=
EXTT3=
EXTT4=
EXTT5=
EXTT6=
EXTT7=
EXTT8=
EXTT9=
PLAYORDER=
